<?xml version="1.0" encoding="iso-8859-1"?>
<!-- Generator: Adobe Illustrator 18.1.1, SVG Export Plug-In . SVG Version: 6.00 Build 0)  -->
<svg version="1.1" id="Capa_1" xmlns="http://www.w3.org/2000/svg" xmlns:xlink="http://www.w3.org/1999/xlink" x="0px" y="0px"
	 viewBox="0 0 467.566 467.566" style="enable-background:new 0 0 467.566 467.566;" xml:space="preserve" fill="#2E3E31">
<g>
	<g>
		<path d="M328.11,144.925c-10.185,7.364-41.659,28.474-90.349,46.211v7.99
			c19.785,6.47,33.53,24.947,33.53,46.252v80.27c0,1.715-0.098,3.414-0.268,5.08c15.851,0.455,31.701-3.804,45.634-13.575
			c12.884-9.039,29.328,9.429,16.265,18.59c-21.833,15.322-46.707,21.386-71.214,18.81c-8.893,12.022-23.126,19.858-39.188,19.858
			h-68.134c31.604,28.491,73.328,45.926,119.238,45.926c51.023,0,96.925-21.5,129.48-55.795l5.901-35.457
			c0.163-0.992,16.103-100.136-24.475-152.801C370.655,158.272,352.171,147.99,328.11,144.925z M329.866,277.567
			c-23.175,0-42.017-18.85-42.017-42.025c0-3.365,2.731-6.096,6.096-6.096c3.365,0,6.096,2.731,6.096,6.096
			c0,16.444,13.38,29.832,29.824,29.832c16.444,0,29.824-13.38,29.824-29.832c0-3.365,2.731-6.096,6.096-6.096
			c3.365,0,6.096,2.731,6.096,6.096C371.882,258.717,353.04,277.567,329.866,277.567z"/>
		<path d="M423.637,84.684c1.74-42.122-78.53-73.848-158.491-73.84c-58.014,0-115.873,16.712-142.096,58.266
			c-2.276,3.601-4.243,7.178-6.292,10.754c0.707-0.033,1.406-0.106,2.122-0.106h70.109c26.889,0,48.771,21.882,48.771,48.771v41.074
			c56.721-22.289,88.935-48.576,88.935-48.576c128.919,12.461,96.966,210.546,96.966,210.546
			c13.941-21.207,23.841-41.293,30.75-60.233c7.568-20.712,11.453-40.001,12.697-57.705c2.008-28.718-2.829-53.275-9.982-73.011
			C444.113,104.689,423.637,84.684,423.637,84.684z"/>
		<polygon points="35.563,259.603 0,259.603 0,456.721 42.675,456.721 42.675,323.616 70.109,323.616 
			70.109,215.067 35.563,215.067 		"/>
		<path d="M252.278,353.155c5.755-6.226,9.478-14.225,10.445-23.118c0.163-1.463,0.439-2.886,0.439-4.389
			v-80.27c0-20.013-14.493-36.554-33.53-39.928v-11.51v-21.24V128.53c0-22.443-18.2-40.643-40.643-40.643H118.88
			c-2.39,0-4.698,0.309-6.974,0.707c-19.102,3.325-33.669,19.882-33.669,39.936v86.537v108.549v2.032
			c0,22.443,18.2,40.643,40.643,40.643h27.052h76.587C234.314,366.291,244.849,361.186,252.278,353.155z M178.625,336.093
			c-21.305,0-40.488-9.039-54.071-23.427c-5.625-5.958-10.275-12.819-13.697-20.37c-4.251-9.364-6.682-19.72-6.682-30.661
			c0-15.314,4.658-29.564,12.616-41.407c7.397-11.014,17.696-19.883,29.742-25.67c9.738-4.682,20.598-7.381,32.1-7.381
			c0.78,0,1.512,0.179,2.203,0.447c2.276,0.886,3.894,3.064,3.894,5.649c0,3.365-2.731,6.096-6.096,6.096
			c-15.802,0-30.206,5.966-41.196,15.704c-1.74,1.544-3.39,3.178-4.95,4.902c-9.982,11.047-16.119,25.629-16.119,41.659
			c0,12.234,3.593,23.613,9.714,33.246c11.055,17.403,30.45,29.019,52.551,29.019c3.365,0,6.096,2.731,6.096,6.096
			S181.991,336.093,178.625,336.093z M166.636,302.278c-11.226,0-20.321-9.096-20.321-20.321s9.096-20.321,20.321-20.321
			s20.321,9.096,20.321,20.321S177.861,302.278,166.636,302.278z M170.7,233.185c0-11.226,9.096-20.321,20.321-20.321
			c11.226,0,20.321,9.096,20.321,20.321c0,11.226-9.096,20.321-20.321,20.321C179.796,253.507,170.7,244.411,170.7,233.185z
			 M223.536,261.635c11.226,0,20.321,9.096,20.321,20.321s-9.096,20.321-20.321,20.321s-20.321-9.096-20.321-20.321
			S212.31,261.635,223.536,261.635z"/>
	</g>
</g>
<g>
</g>
<g>
</g>
<g>
</g>
<g>
</g>
<g>
</g>
<g>
</g>
<g>
</g>
<g>
</g>
<g>
</g>
<g>
</g>
<g>
</g>
<g>
</g>
<g>
</g>
<g>
</g>
<g>
</g>
</svg>
