<?xml version="1.0" encoding="iso-8859-1"?>
<!-- Generator: Adobe Illustrator 19.0.0, SVG Export Plug-In . SVG Version: 6.00 Build 0)  -->
<svg version="1.1" id="Layer_1" xmlns="http://www.w3.org/2000/svg" xmlns:xlink="http://www.w3.org/1999/xlink" x="0px" y="0px"
	 viewBox="0 0 512 512" style="enable-background:new 0 0 512 512;" xml:space="preserve" fill="#2E3E31">
<g>
	<g>
		<path d="M367.303,322.783c-44.334-11.857-77.913-22.261-77.913-22.261l0.001-133.565c-0.001-18.442-14.951-33.391-33.391-33.391
			c-18.441,0-33.391,14.949-33.392,33.391l-0.001,178.087c-30.733,0-55.65,24.917-55.65,55.652v33.391
			c0,43.029,34.883,77.913,77.913,77.913h100.173c43.031,0,77.914-34.883,77.913-77.913c0,0,0-33.391,0.001-55.652
			C422.957,356.174,415.164,335.583,367.303,322.783z"/>
	</g>
</g>
<g>
	<g>
		<path d="M333.913,0H111.304C99.01,0,89.043,9.966,89.043,22.261v400.696c0,12.295,9.966,22.261,22.261,22.261h22.815
			c-0.365-3.661-0.554-7.374-0.554-11.13v-33.391c0-16.209,4.358-31.417,11.955-44.522h-23.086V66.783h200.348v208.865
			c9.157,2.675,20.557,5.946,33.391,9.498V22.261C356.174,9.966,346.208,0,333.913,0z"/>
	</g>
</g>
<g>
</g>
<g>
</g>
<g>
</g>
<g>
</g>
<g>
</g>
<g>
</g>
<g>
</g>
<g>
</g>
<g>
</g>
<g>
</g>
<g>
</g>
<g>
</g>
<g>
</g>
<g>
</g>
<g>
</g>
</svg>
